<?xml version="1.0" encoding="UTF-8" standalone="no"?>
<!-- Generator: Adobe Illustrator 16.0.0, SVG Export Plug-In . SVG Version: 6.00 Build 0)  -->

<svg
   xmlns:dc="http://purl.org/dc/elements/1.1/"
   xmlns:cc="http://creativecommons.org/ns#"
   xmlns:rdf="http://www.w3.org/1999/02/22-rdf-syntax-ns#"
   xmlns:svg="http://www.w3.org/2000/svg"
   xmlns="http://www.w3.org/2000/svg"
   xmlns:sodipodi="http://sodipodi.sourceforge.net/DTD/sodipodi-0.dtd"
   xmlns:inkscape="http://www.inkscape.org/namespaces/inkscape"
   version="1.1"
   id="Capa_1"
   x="0px"
   y="0px"
   width="512px"
   height="512px"
   viewBox="0 0 59.465 59.465"
   style="enable-background:new 0 0 59.465 59.465;"
   xml:space="preserve"
   inkscape:version="0.91 r13725"
   sodipodi:docname="home.svg"><metadata
     id="metadata45"><rdf:RDF><cc:Work
         rdf:about=""><dc:format>image/svg+xml</dc:format><dc:type
           rdf:resource="http://purl.org/dc/dcmitype/StillImage" /></cc:Work></rdf:RDF></metadata><defs
     id="defs43" /><sodipodi:namedview
     pagecolor="#ffffff"
     bordercolor="#666666"
     borderopacity="1"
     objecttolerance="10"
     gridtolerance="10"
     guidetolerance="10"
     inkscape:pageopacity="0"
     inkscape:pageshadow="2"
     inkscape:window-width="1366"
     inkscape:window-height="671"
     id="namedview41"
     showgrid="false"
     inkscape:zoom="0.65186406"
     inkscape:cx="117.31083"
     inkscape:cy="194.95326"
     inkscape:window-x="0"
     inkscape:window-y="27"
     inkscape:window-maximized="1"
     inkscape:current-layer="Capa_1" /><g
     id="g3"><g
       id="g5"><path
         d="M 58.862,33.886 C 36.937161,11.796555 36.922859,11.763501 31.185,6.21 30.384,5.407 29.081,5.407 28.28,6.21 L 0.603,33.886 c -0.803,0.804 -0.803,2.104 0,2.907 0.802,0.803 2.104,0.803 2.907,0 L 29.732,10.57 55.955,36.793 c 0.401,0.398 0.93,0.604 1.455,0.604 0.522,0 1.051,-0.201 1.452,-0.604 0.803,-0.805 0.803,-2.104 0,-2.907 z"
         id="path7"
         inkscape:connector-curvature="0"
         style="fill:#6a9fb5"
         sodipodi:nodetypes="ccccccccscc" /><path
         d="M52.979,36.245L31.185,14.449c-0.385-0.385-0.908-0.602-1.454-0.602c-0.545,0-1.068,0.217-1.453,0.602L6.484,36.245    c-0.291,0.288-0.487,0.659-0.565,1.062c-0.061,0.314-0.091,0.633-0.091,0.942v10.638c0,2.739,2.229,4.971,4.969,4.971h10.638    c1.378,0,2.707-0.582,3.645-1.599c0.854-0.923,1.324-2.12,1.324-3.373v-7.812c0-1.896,1.453-3.48,3.33-3.658    c1.878,0.178,3.331,1.762,3.331,3.658v7.812c0,1.252,0.472,2.45,1.324,3.373c0.938,1.017,2.269,1.599,3.646,1.599h10.638    c2.74,0,4.971-2.229,4.971-4.972V38.252c0-0.312-0.031-0.63-0.092-0.941C53.471,36.904,53.271,36.533,52.979,36.245z"
         fill="#6a9fb5"
         id="path9" /></g></g><g
     id="g11" /><g
     id="g13" /><g
     id="g15" /><g
     id="g17" /><g
     id="g19" /><g
     id="g21" /><g
     id="g23" /><g
     id="g25" /><g
     id="g27" /><g
     id="g29" /><g
     id="g31" /><g
     id="g33" /><g
     id="g35" /><g
     id="g37" /><g
     id="g39" /></svg>